<?xml version="1.0" encoding="UTF-8" standalone="no"?>
<svg xmlns="http://www.w3.org/2000/svg" width="420" height="760" viewBox="0 0 420 760" fill="none">
  <rect width="420" height="760" fill="#111111"/>
  <ellipse cx="210" cy="76" rx="46" ry="54" fill="#d8a08d"/>
  <rect x="186" y="126" width="48" height="52" rx="16" fill="#cf8a75"/>
  <path d="M126 190c30-34 60-50 84-50s54 16 84 50v86c0 52-34 94-84 94s-84-42-84-94v-86z" fill="#c97a66"/>
  <ellipse cx="108" cy="234" rx="24" ry="58" fill="#c16f5b"/>
  <ellipse cx="312" cy="234" rx="24" ry="58" fill="#c16f5b"/>
  <rect x="88" y="282" width="40" height="142" rx="20" fill="#bc6854"/>
  <rect x="292" y="282" width="40" height="142" rx="20" fill="#bc6854"/>
  <path d="M144 358h132v152H144z" fill="#b75f4b"/>
  <rect x="160" y="506" width="42" height="174" rx="21" fill="#b15845"/>
  <rect x="218" y="506" width="42" height="174" rx="21" fill="#b15845"/>
  <text x="210" y="730" fill="#ffffff" font-size="30" text-anchor="middle" font-family="Arial">BACK</text>
</svg>
