<?xml version="1.0" encoding="UTF-8" standalone="no"?>
<svg width="512" height="512" viewBox="0 0 512 512" version="1.1" xmlns="http://www.w3.org/2000/svg">
  <defs>
    <radialGradient id="halo" cx="50%" cy="45%" r="58%">
      <stop offset="0" stop-color="#A78BFA" stop-opacity="0.22"></stop>
      <stop offset="1" stop-color="#A78BFA" stop-opacity="0"></stop>
    </radialGradient>
  </defs>
  <rect width="512" height="512" fill="#1A102D"></rect>
  <rect width="512" height="512" fill="url(#halo)"></rect>
  <g fill="none" stroke-linecap="round" stroke-linejoin="round">
    <path d="M116 320 C170 308 228 274 274 228" stroke="#8B5CF6" stroke-opacity="0.28" stroke-width="22"></path>
    <path d="M96 352 C164 340 236 298 292 242" stroke="#C084FC" stroke-opacity="0.18" stroke-width="18"></path>
    <circle cx="305" cy="132" r="34" fill="#F5F3FF"></circle>
    <path d="M230 214 C250 182 286 165 325 166 L366 168 C392 169 414 191 410 217 L402 262 C398 283 380 298 358 298 L314 298 C294 298 274 287 264 270 L230 214 Z" fill="#F5F3FF"></path>
    <path d="M282 213 L208 263" stroke="#F5F3FF" stroke-width="26"></path>
    <path d="M300 282 L196 376" stroke="#F5F3FF" stroke-width="30"></path>
    <path d="M360 214 L439 229" stroke="#F5F3FF" stroke-width="24"></path>
    <path d="M344 286 L414 352" stroke="#F5F3FF" stroke-width="20"></path>
    <path d="M420 98 L384 174 L424 174 L360 304 L378 204 L333 204 Z" fill="#A78BFA" stroke="#FFFFFF" stroke-width="8"></path>
  </g>
</svg>