<?xml version="1.0" encoding="UTF-8" standalone="no"?>
<svg width="512" height="512" viewBox="0 0 512 512" version="1.1" xmlns="http://www.w3.org/2000/svg">
  <g fill="none" stroke-linecap="round" stroke-linejoin="round">
    <path d="M120 315 C170 306 224 274 268 228" stroke="#8B5CF6" stroke-opacity="0.28" stroke-width="22"></path>
    <path d="M105 350 C165 340 232 300 286 248" stroke="#C084FC" stroke-opacity="0.18" stroke-width="18"></path>
    <circle cx="305" cy="132" r="34" fill="#F5F3FF" opacity="0.98"></circle>
    <path d="M230 214 C250 182 286 165 325 166 L366 168 C392 169 414 191 410 217 L402 262 C398 283 380 298 358 298 L314 298 C294 298 274 287 264 270 L230 214 Z" fill="#F5F3FF" opacity="0.98"></path>
    <path d="M282 213 L208 263" stroke="#F5F3FF" stroke-width="26"></path>
    <path d="M300 282 L196 376" stroke="#F5F3FF" stroke-width="30"></path>
    <path d="M360 214 L439 229" stroke="#F5F3FF" stroke-width="24"></path>
    <path d="M344 286 L414 352" stroke="#F5F3FF" stroke-width="20"></path>
    <path d="M420 98 L384 174 L424 174 L360 304 L378 204 L333 204 Z" fill="#A78BFA" stroke="#FFFFFF" stroke-width="8"></path>
  </g>
</svg>